<?xml version="1.0" encoding="UTF-8"?>
<svg version="1.1" xmlns="http://www.w3.org/2000/svg" width="256" height="256">
<path d="M0 0 C84.48 0 168.96 0 256 0 C256 84.48 256 168.96 256 256 C171.52 256 87.04 256 0 256 C0 171.52 0 87.04 0 0 Z " fill="#121212" transform="translate(0,0)"/>
<path d="M0 0 C84.48 0 168.96 0 256 0 C256 41.91 256 83.82 256 127 C238.84 127 221.68 127 204 127 C201.9375 121.451875 199.875 115.90375 197.75 110.1875 C196.78658691 107.59684692 196.78658691 107.59684692 195.80371094 104.95385742 C194.44993842 101.31242804 193.09979451 97.66966384 191.7512207 94.02630615 C191.06532883 92.17621481 190.37563718 90.32753332 189.68554688 88.47900391 C189.32009766 87.49206543 188.95464844 86.50512695 188.578125 85.48828125 C188.2677832 84.65466064 187.95744141 83.82104004 187.63769531 82.9621582 C187 81 187 81 187 79 C184.03 79.495 184.03 79.495 181 80 C180.80177139 80.5593222 180.60354279 81.11864441 180.39930725 81.69491577 C178.34074473 87.50256189 176.28039512 93.30957172 174.21899414 99.11621094 C173.4493269 101.28499252 172.68011954 103.45393737 171.91137695 105.62304688 C170.80800552 108.73610514 169.70299578 111.84857758 168.59765625 114.9609375 C168.08042747 116.42193375 168.08042747 116.42193375 167.55274963 117.91244507 C167.23249313 118.81322784 166.91223663 119.71401062 166.58227539 120.64208984 C166.30025772 121.43706879 166.01824005 122.23204773 165.72767639 123.05111694 C165 125 165 125 164 127 C150.47 127 136.94 127 123 127 C124.64914841 122.87712897 126.38647908 119.45567555 128.6328125 115.66015625 C128.98834198 115.05674911 129.34387146 114.45334198 129.71017456 113.83164978 C130.84516866 111.90663993 131.98484415 109.98445626 133.125 108.0625 C134.24284555 106.17216948 135.35964206 104.28122703 136.47555542 102.38975525 C137.50284679 100.64944812 138.53282367 98.91072702 139.56298828 97.17211914 C143.0862408 91.14037577 146.53429154 85.0649898 150 79 C133.83 79 117.66 79 101 79 C101 80.65 101 82.3 101 84 C114.53 84 128.06 84 142 84 C140.44103154 87.89742114 138.85058952 91.18485789 136.76953125 94.7890625 C136.13080078 95.89636719 135.49207031 97.00367187 134.83398438 98.14453125 C134.33451294 99.00425537 134.33451294 99.00425537 133.82495117 99.88134766 C132.82887588 101.59679732 131.83918683 103.31595004 130.84960938 105.03515625 C119.01180612 125.49409694 119.01180612 125.49409694 116 127 C112.27122146 127.05942277 108.55621346 127.02106796 104.828125 126.9609375 C100.41615235 126.9173983 96.35071268 127.14587236 92 128 C91.34 128 90.68 128 90 128 C90 111.83 90 95.66 90 79 C88.35 79 86.7 79 85 79 C85 94.84 85 110.68 85 127 C76.09 127 67.18 127 58 127 C58 112.81 58 98.62 58 84 C64.6 84 71.2 84 78 84 C78 82.35 78 80.7 78 79 C62.82 79 47.64 79 32 79 C32 80.65 32 82.3 32 84 C38.93 84 45.86 84 53 84 C53 98.19 53 112.38 53 127 C46.06354968 127.63058639 39.4193203 128.15061202 32.5 128.1328125 C31.23555054 128.13424759 31.23555054 128.13424759 29.94555664 128.13571167 C28.18782475 128.13638496 26.43009024 128.13459094 24.67236328 128.13037109 C21.97813434 128.12495605 19.28406799 128.13037251 16.58984375 128.13671875 C14.87239547 128.13605887 13.15494728 128.13477958 11.4375 128.1328125 C10.63441406 128.13483673 9.83132813 128.13686096 9.00390625 128.13894653 C5.74405714 128.12515527 3.11460509 128.0382017 0 127 C0 85.09 0 43.18 0 0 Z " fill="#100F0F" transform="translate(0,0)"/>
<path d="M0 0 C1.65 0 3.3 0 5 0 C5 16.17 5 32.34 5 49 C7.64 48.34 10.28 47.68 13 47 C15.49707031 46.83642578 15.49707031 46.83642578 17.578125 46.9453125 C18.73054688 46.98205078 18.73054688 46.98205078 19.90625 47.01953125 C21.48471022 47.09056196 23.06285944 47.16883066 24.640625 47.25390625 C25.7853125 47.28677734 25.7853125 47.28677734 26.953125 47.3203125 C27.63536133 47.35398926 28.31759766 47.38766602 29.02050781 47.42236328 C31.95932276 46.79530977 33.08677385 45.2666755 35 43 C36.03123685 41.40487086 37.00189271 39.76940718 37.91796875 38.10546875 C38.45099609 37.14833984 38.98402344 36.19121094 39.53320312 35.20507812 C40.07912109 34.20927734 40.62503906 33.21347656 41.1875 32.1875 C46.26607203 22.99385491 51.58933477 14.01777539 57 5 C43.47 5 29.94 5 16 5 C16 3.35 16 1.7 16 0 C32.17 0 48.34 0 65 0 C63.49216236 4.52351293 62.27728978 7.52293257 59.875 11.45703125 C59.24980469 12.48892578 58.62460938 13.52082031 57.98046875 14.58398438 C57.32691406 15.64939453 56.67335938 16.71480469 56 17.8125 C49.90632104 27.823544 43.94378084 37.89557257 38 48 C51.53 48 65.06 48 79 48 C79.99 44.7 80.98 41.4 82 38 C83.01529398 34.97975349 84.04334605 31.96971407 85.1015625 28.96484375 C85.5244606 27.75774498 85.5244606 27.75774498 85.9559021 26.52626038 C86.54465786 24.84791753 87.1345607 23.16997665 87.72558594 21.49243164 C88.63341098 18.91360726 89.53563232 16.33286612 90.4375 13.75195312 C91.01268713 12.11446608 91.58819599 10.477092 92.1640625 8.83984375 C92.43384918 8.06704575 92.70363586 7.29424774 92.9815979 6.49803162 C94.88524074 1.11475926 94.88524074 1.11475926 96 0 C97.99958364 -0.04080783 100.00045254 -0.04254356 102 0 C104.42559907 6.5128046 106.84616314 13.02746392 109.26318359 19.54345703 C110.08655967 21.76133898 110.91110085 23.97878875 111.73681641 26.19580078 C112.92133993 29.37680813 114.10170744 32.55933037 115.28125 35.7421875 C115.83903137 37.23599442 115.83903137 37.23599442 116.40808105 38.75997925 C116.74843384 39.68078278 117.08878662 40.6015863 117.43945312 41.55029297 C117.7414563 42.3630368 118.04345947 43.17578064 118.35461426 44.01315308 C119 46 119 46 119 48 C136.16 48 153.32 48 171 48 C171 48.66 171 49.32 171 50 C154.17 50 137.34 50 120 50 C121.95622269 55.98875213 121.95622269 55.98875213 124.1875 61.875 C125 64 125 64 125 67 C123.35 66.67 121.7 66.34 120 66 C119.62875 64.081875 119.62875 64.081875 119.25 62.125 C118.48009414 58.73252682 118.48009414 58.73252682 115.875 56.5 C115.25625 56.335 114.6375 56.17 114 56 C114.165 55.38125 114.33 54.7625 114.5 54.125 C115.07634644 52.03936614 115.07634644 52.03936614 115 50 C113.69546875 50.08378906 112.3909375 50.16757813 111.046875 50.25390625 C101.5803058 50.81998028 92.43154943 51.24603803 83 50 C83.495 53.465 83.495 53.465 84 57 C82.515 57.495 82.515 57.495 81 58 C80.67 58.99 80.34 59.98 80 61 C78.35 61 76.7 61 75 61 C75.30921884 59.54096742 75.62248799 58.08279278 75.9375 56.625 C76.11152344 55.81289062 76.28554687 55.00078125 76.46484375 54.1640625 C77 52 77 52 78 50 C76.12187622 50.05329468 76.12187622 50.05329468 74.20581055 50.10766602 C27.73074049 51.39964487 27.73074049 51.39964487 5 50 C5.01160156 50.77085937 5.02320313 51.54171875 5.03515625 52.3359375 C5.04417969 53.33882812 5.05320313 54.34171875 5.0625 55.375 C5.07410156 56.37273437 5.08570313 57.37046875 5.09765625 58.3984375 C5 61 5 61 4 63 C7.3 63 10.6 63 14 63 C14 63.66 14 64.32 14 65 C11.36 65 8.72 65 6 65 C6 65.66 6 66.32 6 67 C7.98 67 9.96 67 12 67 C12 67.66 12 68.32 12 69 C10.02 69 8.04 69 6 69 C6 69.66 6 70.32 6 71 C8.31 71 10.62 71 13 71 C13 71.99 13 72.98 13 74 C10.36 74 7.72 74 5 74 C5 74.99 5 75.98 5 77 C3.35 77 1.7 77 0 77 C0 75.68 0 74.36 0 73 C-0.99 73 -1.98 73 -3 73 C-3.66 71.68 -4.32 70.36 -5 69 C-5.66 70.32 -6.32 71.64 -7 73 C-10 72 -10 72 -11.1875 69.6875 C-12 67 -12 67 -12 63 C-11.34 63 -10.68 63 -10 63 C-9.01 64.485 -9.01 64.485 -8 66 C-7.505 64.515 -7.505 64.515 -7 63 C-5.68 63.33 -4.36 63.66 -3 64 C-3 65.32 -3 66.64 -3 68 C-2.34 68 -1.68 68 -1 68 C-0.67 62.06 -0.34 56.12 0 50 C-8.91 50 -17.82 50 -27 50 C-26.67 49.34 -26.34 48.68 -26 48 C-17.42 48 -8.84 48 0 48 C0 32.16 0 16.32 0 0 Z " fill="#606868" transform="translate(85,79)"/>
<path d="M0 0 C1.65 0 3.3 0 5 0 C5 16.17 5 32.34 5 49 C7.64 48.34 10.28 47.68 13 47 C15.49707031 46.83642578 15.49707031 46.83642578 17.578125 46.9453125 C18.73054688 46.98205078 18.73054688 46.98205078 19.90625 47.01953125 C21.48471022 47.09056196 23.06285944 47.16883066 24.640625 47.25390625 C25.7853125 47.28677734 25.7853125 47.28677734 26.953125 47.3203125 C27.63536133 47.35398926 28.31759766 47.38766602 29.02050781 47.42236328 C31.95932276 46.79530977 33.08677385 45.2666755 35 43 C36.03123685 41.40487086 37.00189271 39.76940718 37.91796875 38.10546875 C38.45099609 37.14833984 38.98402344 36.19121094 39.53320312 35.20507812 C40.07912109 34.20927734 40.62503906 33.21347656 41.1875 32.1875 C46.26607203 22.99385491 51.58933477 14.01777539 57 5 C43.47 5 29.94 5 16 5 C16 3.35 16 1.7 16 0 C32.17 0 48.34 0 65 0 C63.49216236 4.52351293 62.27728978 7.52293257 59.875 11.45703125 C59.2550415 12.47998291 58.63508301 13.50293457 57.99633789 14.55688477 C57.33754639 15.63123779 56.67875488 16.70559082 56 17.8125 C54.64393279 20.04651184 53.28846662 22.28088862 51.93359375 24.515625 C51.2669873 25.61197266 50.60038086 26.70832031 49.91357422 27.83789062 C45.87165976 34.51700214 41.94491749 41.26329474 38 48 C50.87 48 63.74 48 77 48 C76.505 48.99 76.505 48.99 76 50 C28.44694534 51.41800643 28.44694534 51.41800643 5 50 C5.01160156 50.77085937 5.02320313 51.54171875 5.03515625 52.3359375 C5.04417969 53.33882812 5.05320313 54.34171875 5.0625 55.375 C5.07410156 56.37273437 5.08570313 57.37046875 5.09765625 58.3984375 C5 61 5 61 4 63 C7.3 63 10.6 63 14 63 C14 63.66 14 64.32 14 65 C11.36 65 8.72 65 6 65 C6 65.66 6 66.32 6 67 C7.98 67 9.96 67 12 67 C12 67.66 12 68.32 12 69 C10.02 69 8.04 69 6 69 C6 69.66 6 70.32 6 71 C8.31 71 10.62 71 13 71 C13 71.99 13 72.98 13 74 C10.36 74 7.72 74 5 74 C5 74.99 5 75.98 5 77 C3.35 77 1.7 77 0 77 C0 75.68 0 74.36 0 73 C-0.99 73 -1.98 73 -3 73 C-3.66 71.68 -4.32 70.36 -5 69 C-5.66 70.32 -6.32 71.64 -7 73 C-10 72 -10 72 -11.1875 69.6875 C-12 67 -12 67 -12 63 C-11.34 63 -10.68 63 -10 63 C-9.01 64.485 -9.01 64.485 -8 66 C-7.505 64.515 -7.505 64.515 -7 63 C-5.68 63.33 -4.36 63.66 -3 64 C-3 65.32 -3 66.64 -3 68 C-2.34 68 -1.68 68 -1 68 C-0.67 62.06 -0.34 56.12 0 50 C-8.91 50 -17.82 50 -27 50 C-26.67 49.34 -26.34 48.68 -26 48 C-17.42 48 -8.84 48 0 48 C0 32.16 0 16.32 0 0 Z " fill="#707574" transform="translate(85,79)"/>
<path d="M0 0 C1.32 0.33 2.64 0.66 4 1 C2.64630977 6.14402288 0.16843713 10.19281996 -2.66015625 14.6328125 C-3.89131775 16.80798413 -4.54467545 18.5603598 -5 21 C-3.35 21 -1.7 21 0 21 C-0.04125 19.88625 -0.0825 18.7725 -0.125 17.625 C0 14 0 14 2 12 C8.12984211 11.22055887 14.92461586 12.02359898 21 13 C21.495 13.495 21.495 13.495 22 14 C21.82364548 16.69082872 21.38164079 19.32851446 21 22 C21.66 22 22.32 22 23 22 C22.979375 20.700625 22.95875 19.40125 22.9375 18.0625 C22.91600546 16.70834367 22.92851801 15.35243917 23 14 C24 13 24 13 25.99609375 12.90234375 C26.80175781 12.91394531 27.60742188 12.92554688 28.4375 12.9375 C29.24058594 12.94652344 30.04367188 12.95554688 30.87109375 12.96484375 C31.57363281 12.97644531 32.27617187 12.98804688 33 13 C33.66 13 34.32 13 35 13 C41.66666667 13 48.33333333 13 55 13 C55 13.66 55 14.32 55 15 C54.01 15 53.02 15 52 15 C52 17.64 52 20.28 52 23 C51.01 23 50.02 23 49 23 C49 20.36 49 17.72 49 15 C45.37 15 41.74 15 38 15 C38 15.66 38 16.32 38 17 C39.98 17 41.96 17 44 17 C44 17.66 44 18.32 44 19 C42.02 19 40.04 19 38 19 C38 20.65 38 22.3 38 24 C37.01 24 36.02 24 35 24 C35 24.99 35 25.98 35 27 C29.30745761 27.02483991 23.61494724 27.04292602 17.92236328 27.05493164 C15.98843841 27.05994013 14.05451729 27.06674882 12.12060547 27.07543945 C9.3303942 27.08765831 6.54023328 27.09326329 3.75 27.09765625 C2.89446533 27.10281754 2.03893066 27.10797882 1.1574707 27.11329651 C-3.98420597 27.11376997 -8.92883739 26.89273592 -14 26 C-16 24 -16 24 -16.1953125 21.3984375 C-16.17210938 20.40070313 -16.14890625 19.40296875 -16.125 18.375 C-16.10695313 17.37210938 -16.08890625 16.36921875 -16.0703125 15.3359375 C-16.04710938 14.56507813 -16.02390625 13.79421875 -16 13 C-12.7 13 -9.4 13 -6 13 C-5.938125 12.34 -5.87625 11.68 -5.8125 11 C-4.67863503 6.81342164 -2.40368936 3.57449008 0 0 Z " fill="#1E2828" transform="translate(116,129)"/>
<path d="M0 0 C2.54348032 -0.14498842 5.04141488 -0.12473393 7.58807373 -0.05197144 C8.9800573 -0.04135933 8.9800573 -0.04135933 10.40016174 -0.03053284 C13.36596078 -0.00252961 16.32987606 0.06021949 19.29510498 0.12380981 C21.30484335 0.14888503 23.3146113 0.17169956 25.32440186 0.19216919 C30.25286275 0.24731655 35.17991444 0.33362985 40.10760498 0.43630981 C39.62901257 2.0406479 39.1497094 3.64477397 38.67010498 5.24880981 C38.40326904 6.14213013 38.13643311 7.03545044 37.86151123 7.95584106 C37.30372625 9.79104036 36.71415923 11.61664708 36.10760498 13.43630981 C33.46760498 13.43630981 30.82760498 13.43630981 28.10760498 13.43630981 C28.10760498 16.07630981 28.10760498 18.71630981 28.10760498 21.43630981 C27.77760498 21.43630981 27.44760498 21.43630981 27.10760498 21.43630981 C26.61260498 17.97130981 26.61260498 17.97130981 26.10760498 14.43630981 C23.13760498 14.43630981 20.16760498 14.43630981 17.10760498 14.43630981 C16.77760498 17.07630981 16.44760498 19.71630981 16.10760498 22.43630981 C15.44760498 22.43630981 14.78760498 22.43630981 14.10760498 22.43630981 C14.10760498 19.79630981 14.10760498 17.15630981 14.10760498 14.43630981 C7.74131538 13.69202544 1.51980648 13.23274786 -4.89239502 13.43630981 C-6.86062388 15.40453867 -6.55487883 18.78439691 -6.89239502 21.43630981 C-8.54239502 21.43630981 -10.19239502 21.43630981 -11.89239502 21.43630981 C-11.29573599 17.41977585 -10.00853576 14.46290734 -8.01739502 10.93630981 C-7.50434814 10.01849731 -6.99130127 9.10068481 -6.46270752 8.15505981 C-5.68540283 6.80927856 -5.68540283 6.80927856 -4.89239502 5.43630981 C-4.56054199 4.5653064 -4.22868896 3.69430298 -3.88677979 2.79690552 C-1.89239502 0.43630981 -1.89239502 0.43630981 0 0 Z " fill="#101010" transform="translate(122.89239501953125,128.56369018554688)"/>
<path d="M0 0 C15.18 0 30.36 0 46 0 C46 1.65 46 3.3 46 5 C39.4 5 32.8 5 26 5 C26.01160156 6.94132812 26.02320313 8.88265625 26.03515625 10.8828125 C26.12160531 32.60449072 25.67225533 54.28937122 25 76 C23.68 76 22.36 76 21 76 C21 67.66666667 21 59.33333333 21 51 C19.39112915 51.00785522 19.39112915 51.00785522 17.74975586 51.01586914 C13.69605372 51.03423606 9.64235509 51.04554539 5.58862305 51.05493164 C3.84805682 51.05990057 2.10749463 51.06667801 0.36694336 51.07543945 C-10.47292756 51.12856076 -21.19396864 50.90689278 -32 50 C-32 49.34 -32 48.68 -32 48 C-14.51 48 2.98 48 21 48 C21 33.81 21 19.62 21 5 C14.07 5 7.14 5 0 5 C0 3.35 0 1.7 0 0 Z " fill="#A79898" transform="translate(32,79)"/>
<path d="M0 0 C3.23249334 2.62599875 4.10987775 5.57378349 5.41015625 9.4609375 C5.62312851 10.08851959 5.83610077 10.71610168 6.05552673 11.36270142 C6.73287798 13.36409854 7.39802595 15.36929508 8.0625 17.375 C8.73311574 19.37261986 9.4062087 21.36938692 10.08018494 23.36587524 C10.69179801 25.18181627 11.29735518 26.99979361 11.90258789 28.81787109 C12.58994293 30.81097133 13.32925571 32.78770856 14.14233398 34.73291016 C15 37 15 37 15 40 C5.76 40 -3.48 40 -13 40 C-11.75809287 34.41141791 -10.69152581 29.72917617 -8.75 24.5 C-8.10224609 22.73269531 -8.10224609 22.73269531 -7.44140625 20.9296875 C-7.09553467 19.99141113 -7.09553467 19.99141113 -6.74267578 19.03417969 C-5.35841334 15.24270216 -4.02641023 11.43267557 -2.6875 7.625 C-2.1706519 6.15882632 -1.6537317 4.69267806 -1.13671875 3.2265625 C-0.76160156 2.16179687 -0.38648438 1.09703125 0 0 Z " fill="#131313" transform="translate(183,87)"/>
<path d="M0 0 C1.65 0 3.3 0 5 0 C5 16.17 5 32.34 5 49 C6.98 48.505 6.98 48.505 9 48 C11.70765395 48.15317021 14.31258733 48.5968881 17 49 C17 49.33 17 49.66 17 50 C13.04 50 9.08 50 5 50 C5.020625 51.77375 5.04125 53.5475 5.0625 55.375 C5.125 60.75 5.125 60.75 4 63 C7.3 63 10.6 63 14 63 C14 63.66 14 64.32 14 65 C11.36 65 8.72 65 6 65 C6 65.66 6 66.32 6 67 C7.98 67 9.96 67 12 67 C12 67.66 12 68.32 12 69 C10.02 69 8.04 69 6 69 C6 69.66 6 70.32 6 71 C8.31 71 10.62 71 13 71 C13 71.99 13 72.98 13 74 C10.36 74 7.72 74 5 74 C5 74.99 5 75.98 5 77 C3.35 77 1.7 77 0 77 C0 75.68 0 74.36 0 73 C-0.99 73 -1.98 73 -3 73 C-3.66 71.68 -4.32 70.36 -5 69 C-5.66 70.32 -6.32 71.64 -7 73 C-10 72 -10 72 -11.1875 69.6875 C-12 67 -12 67 -12 63 C-11.34 63 -10.68 63 -10 63 C-9.01 64.485 -9.01 64.485 -8 66 C-7.505 64.515 -7.505 64.515 -7 63 C-5.68 63.33 -4.36 63.66 -3 64 C-3 65.32 -3 66.64 -3 68 C-2.34 68 -1.68 68 -1 68 C-0.67 62.06 -0.34 56.12 0 50 C-8.91 50 -17.82 50 -27 50 C-26.67 49.34 -26.34 48.68 -26 48 C-17.42 48 -8.84 48 0 48 C0 32.16 0 16.32 0 0 Z " fill="#8B8888" transform="translate(85,79)"/>
<path d="M0 0 C1.32 0.33 2.64 0.66 4 1 C2.64630977 6.14402288 0.16843713 10.19281996 -2.66015625 14.6328125 C-3.89131775 16.80798413 -4.54467545 18.5603598 -5 21 C-3.35 21 -1.7 21 0 21 C-0.020625 19.865625 -0.04125 18.73125 -0.0625 17.5625 C0 14 0 14 1 13 C2.51928038 12.92820036 4.04167482 12.91607993 5.5625 12.9375 C6.38878906 12.94652344 7.21507813 12.95554688 8.06640625 12.96484375 C8.70449219 12.97644531 9.34257813 12.98804688 10 13 C10 13.66 10 14.32 10 15 C7.36 15 4.72 15 2 15 C2 16.98 2 18.96 2 21 C4.64 21 7.28 21 10 21 C10 21.66 10 22.32 10 23 C7.36 23 4.72 23 2 23 C2 23.66 2 24.32 2 25 C2.99 25.33 3.98 25.66 5 26 C1.87507749 26.05791844 -1.24970766 26.09356746 -4.375 26.125 C-5.26445313 26.14175781 -6.15390625 26.15851563 -7.0703125 26.17578125 C-7.92109375 26.18222656 -8.771875 26.18867188 -9.6484375 26.1953125 C-10.82672119 26.21102295 -10.82672119 26.21102295 -12.02880859 26.22705078 C-14 26 -14 26 -16 24 C-16.1953125 21.3984375 -16.1953125 21.3984375 -16.125 18.375 C-16.10695313 17.37210938 -16.08890625 16.36921875 -16.0703125 15.3359375 C-16.04710938 14.56507813 -16.02390625 13.79421875 -16 13 C-12.7 13 -9.4 13 -6 13 C-5.938125 12.34 -5.87625 11.68 -5.8125 11 C-4.67863503 6.81342164 -2.40368936 3.57449008 0 0 Z " fill="#2A4343" transform="translate(116,129)"/>
<path d="M0 0 C10.56 0 21.12 0 32 0 C32.495 2.475 32.495 2.475 33 5 C32.67 5.33 32.34 5.66 32 6 C33.32 6.66 34.64 7.32 36 8 C35.67 8.99 35.34 9.98 35 11 C34.505 10.01 34.505 10.01 34 9 C22.12 8.67 10.24 8.34 -2 8 C-1.34 7.34 -0.68 6.68 0 6 C-0.29369827 4.65737935 -0.6278958 3.32303717 -1 2 C-0.67 1.34 -0.34 0.68 0 0 Z " fill="#3E5353" transform="translate(168,129)"/>
<path d="M0 0 C16.17 0 32.34 0 49 0 C46.61643836 7.15068493 46.61643836 7.15068493 43 10 C42.01 10 41.02 10 40 10 C40.33 8.35 40.66 6.7 41 5 C27.47 5 13.94 5 0 5 C0 3.35 0 1.7 0 0 Z " fill="#F2C2C4" transform="translate(101,79)"/>
<path d="M0 0 C1.4540625 0.0309375 1.4540625 0.0309375 2.9375 0.0625 C4.47620162 3.97238141 5.99030703 7.89133608 7.5 11.8125 C8.15645508 13.47925781 8.15645508 13.47925781 8.82617188 15.1796875 C9.23544922 16.24960938 9.64472656 17.31953125 10.06640625 18.421875 C10.44869385 19.40639648 10.83098145 20.39091797 11.22485352 21.40527344 C11.9722947 24.19223811 12.12238095 25.45180632 10.9375 28.0625 C9.9475 28.7225 8.9575 29.3825 7.9375 30.0625 C5.2975 23.1325 2.6575 16.2025 -0.0625 9.0625 C-1.3825 12.3625 -2.7025 15.6625 -4.0625 19.0625 C-4.7225 20.3825 -5.3825 21.7025 -6.0625 23.0625 C-6.3925 22.4025 -6.7225 21.7425 -7.0625 21.0625 C-8.0525 21.3925 -9.0425 21.7225 -10.0625 22.0625 C-9.48458517 16.95320756 -8.3444361 12.54638389 -6.5625 7.6875 C-6.1190625 6.46289062 -5.675625 5.23828125 -5.21875 3.9765625 C-3.67064165 0.07491105 -3.67064165 0.07491105 0 0 Z " fill="#E1B7B7" transform="translate(184.0625,78.9375)"/>
<path d="M0 0 C1.32 0 2.64 0 4 0 C5.15874708 3.38777619 4.84201675 5.28672892 3.63671875 8.625 C3.32669922 9.49640625 3.01667969 10.3678125 2.69726562 11.265625 C2.36404297 12.16796875 2.03082031 13.0703125 1.6875 14 C1.36587891 14.90234375 1.04425781 15.8046875 0.71289062 16.734375 C-0.68201768 20.6068925 -2.09844685 24.34400975 -4 28 C-3.34 28.33 -2.68 28.66 -2 29 C-2.99 29 -3.98 29 -5 29 C-4.67 31.31 -4.34 33.62 -4 36 C-5.485 36.495 -5.485 36.495 -7 37 C-7.33 37.99 -7.66 38.98 -8 40 C-9.65 40 -11.3 40 -13 40 C-12.69078116 38.54096742 -12.37751201 37.08279278 -12.0625 35.625 C-11.80146484 34.40683594 -11.80146484 34.40683594 -11.53515625 33.1640625 C-11 31 -11 31 -10 29 C-10.66 28.67 -11.32 28.34 -12 28 C-11.01 27.67 -10.02 27.34 -9 27 C-8.17652711 25.24661556 -8.17652711 25.24661556 -7.6875 23 C-6.29488994 17.86381452 -4.60139239 12.88327267 -2.8125 7.875 C-2.53817139 7.10414062 -2.26384277 6.33328125 -1.98120117 5.5390625 C-1.32280839 3.69199149 -0.66169408 1.84589093 0 0 Z " fill="#6F7474" transform="translate(173,100)"/>
<path d="M0 0 C6.6 0 13.2 0 20 0 C20 0.66 20 1.32 20 2 C19.01 2 18.02 2 17 2 C17 4.64 17 7.28 17 10 C16.01 10 15.02 10 14 10 C14 7.36 14 4.72 14 2 C10.37 2 6.74 2 3 2 C3 2.66 3 3.32 3 4 C4.98 4 6.96 4 9 4 C9 4.66 9 5.32 9 6 C7.02 6 5.04 6 3 6 C3 7.65 3 9.3 3 11 C2.01 11 1.02 11 0 11 C0 11.99 0 12.98 0 14 C-13.53 14 -27.06 14 -41 14 C-41 13.67 -41 13.34 -41 13 C-38.36 12.67 -35.72 12.34 -33 12 C-33 11.67 -33 11.34 -33 11 C-30.03 11 -27.06 11 -24 11 C-24 11.33 -24 11.66 -24 12 C-18.88208358 12.10662326 -14.07071901 11.71167986 -9 11 C-9 9.68 -9 8.36 -9 7 C-7.02 7 -5.04 7 -3 7 C-3 7.99 -3 8.98 -3 10 C-2.34 10 -1.68 10 -1 10 C-0.67 6.7 -0.34 3.4 0 0 Z " fill="#0D2222" transform="translate(151,142)"/>
<path d="M0 0 C0.33 1.32 0.66 2.64 1 4 C1.66 4 2.32 4 3 4 C3 4.66 3 5.32 3 6 C6.63 6 10.26 6 14 6 C14 6.66 14 7.32 14 8 C11.36 8 8.72 8 6 8 C6 8.66 6 9.32 6 10 C7.98 10 9.96 10 12 10 C12 10.66 12 11.32 12 12 C10.02 12 8.04 12 6 12 C6 12.66 6 13.32 6 14 C8.31 14 10.62 14 13 14 C13 14.99 13 15.98 13 17 C10.36 17 7.72 17 5 17 C5 17.99 5 18.98 5 20 C3.35 20 1.7 20 0 20 C0 18.68 0 17.36 0 16 C-0.99 16 -1.98 16 -3 16 C-3.66 14.68 -4.32 13.36 -5 12 C-5.66 13.32 -6.32 14.64 -7 16 C-10 15 -10 15 -11.1875 12.6875 C-12 10 -12 10 -12 6 C-11.34 6 -10.68 6 -10 6 C-9.01 7.485 -9.01 7.485 -8 9 C-7.67 8.01 -7.34 7.02 -7 6 C-5.68 6.33 -4.36 6.66 -3 7 C-3 8.32 -3 9.64 -3 11 C-2.34 11 -1.68 11 -1 11 C-0.67 7.37 -0.34 3.74 0 0 Z " fill="#0E2322" transform="translate(85,136)"/>
<path d="M0 0 C0.99 0 1.98 0 3 0 C3.66 0.99 4.32 1.98 5 3 C4.62713867 3.6297876 4.25427734 4.2595752 3.87011719 4.90844727 C2.16286711 7.79280971 0.45642754 10.67765087 -1.25 13.5625 C-1.83652344 14.55314453 -2.42304688 15.54378906 -3.02734375 16.56445312 C-3.60097656 17.53447266 -4.17460937 18.50449219 -4.765625 19.50390625 C-5.32540039 20.44758057 -5.88517578 21.39125488 -6.46191406 22.36352539 C-7.77065943 24.60688114 -9.01661368 26.87121806 -10.25 29.15625 C-12 32 -12 32 -14.75 32.9375 C-15.4925 32.958125 -16.235 32.97875 -17 33 C-16.41584008 28.56981823 -14.63282349 25.1815537 -12.40234375 21.38671875 C-12.04862198 20.77230423 -11.69490021 20.15788971 -11.33045959 19.52485657 C-10.20602361 17.575196 -9.07195172 15.63134632 -7.9375 13.6875 C-7.17057957 12.36170067 -6.40429646 11.03553246 -5.63867188 9.70898438 C-3.76646622 6.46833903 -1.88560176 3.23286755 0 0 Z " fill="#807D7D" transform="translate(140,87)"/>
<path d="M0 0 C10.56 0 21.12 0 32 0 C32 0.99 32 1.98 32 3 C21.44 3 10.88 3 0 3 C0 2.01 0 1.02 0 0 Z " fill="#0E0E0E" transform="translate(168,129)"/>
<path d="M0 0 C0.99 0 1.98 0 3 0 C3.86762314 2.24561282 4.7192103 4.49526255 5.5625 6.75 C5.9327832 7.70132813 5.9327832 7.70132813 6.31054688 8.671875 C7.28555393 11.30851379 8.03443041 13.49949939 7.83984375 16.328125 C7 18 7 18 4 20 C2.93926635 17.42307643 1.90137038 14.84057676 0.875 12.25 C0.57207031 11.52039063 0.26914063 10.79078125 -0.04296875 10.0390625 C-2.18359806 4.56303404 -2.18359806 4.56303404 -1.1796875 1.484375 C-0.59574219 0.74960938 -0.59574219 0.74960938 0 0 Z " fill="#AB9797" transform="translate(188,89)"/>
<path d="M0 0 C6.27 0 12.54 0 19 0 C19 0.66 19 1.32 19 2 C18.01 2 17.02 2 16 2 C16 4.64 16 7.28 16 10 C15.01 10 14.02 10 13 10 C13 7.36 13 4.72 13 2 C9.37 2 5.74 2 2 2 C2 2.66 2 3.32 2 4 C3.98 4 5.96 4 8 4 C8 4.66 8 5.32 8 6 C6.02 6 4.04 6 2 6 C2 7.32 2 8.64 2 10 C1.34 10 0.68 10 0 10 C0 6.7 0 3.4 0 0 Z " fill="#989999" transform="translate(152,142)"/>
<path d="M0 0 C6.93359375 -0.09765625 6.93359375 -0.09765625 9 0 C10 1 10 1 10.09765625 3.06640625 C10.08605469 3.89011719 10.07445312 4.71382812 10.0625 5.5625 C10.05347656 6.38878906 10.04445312 7.21507812 10.03515625 8.06640625 C10.02355469 8.70449219 10.01195312 9.34257812 10 10 C9.01 10 8.02 10 7 10 C6.67 9.34 6.34 8.68 6 8 C3.97536745 7.34786708 3.97536745 7.34786708 2 7 C2 7.99 2 8.98 2 10 C1.34 10 0.68 10 0 10 C0 6.7 0 3.4 0 0 Z " fill="#9A9B9B" transform="translate(128,142)"/>
<path d="M0 0 C0.99 0 1.98 0 3 0 C3.66 0.99 4.32 1.98 5 3 C3.76478085 5.15563731 2.51329661 7.29840734 1.25 9.4375 C0.90195313 10.04916016 0.55390625 10.66082031 0.1953125 11.29101562 C-2.49291965 15.79629358 -2.49291965 15.79629358 -5.265625 16.91015625 C-5.83796875 16.93980469 -6.4103125 16.96945313 -7 17 C-7.45829251 12.33925162 -6.03411346 9.66654022 -3.6875 5.6875 C-3.07261719 4.61886719 -2.45773438 3.55023438 -1.82421875 2.44921875 C-0.92123047 1.23685547 -0.92123047 1.23685547 0 0 Z " fill="#AD9898" transform="translate(140,87)"/>
<path d="M0 0 C6.93359375 -0.09765625 6.93359375 -0.09765625 9 0 C10 1 10 1 10.09765625 3.06640625 C10.08605469 3.89011719 10.07445312 4.71382812 10.0625 5.5625 C10.05347656 6.38878906 10.04445312 7.21507812 10.03515625 8.06640625 C10.02355469 8.70449219 10.01195312 9.34257812 10 10 C9.34 10 8.68 10 8 10 C8 9.01 8 8.02 8 7 C6.02 7 4.04 7 2 7 C2 7.99 2 8.98 2 10 C1.34 10 0.68 10 0 10 C0 6.7 0 3.4 0 0 Z " fill="#9FA0A0" transform="translate(140,142)"/>
<path d="M0 0 C0.66 0 1.32 0 2 0 C2.66 0.99 3.32 1.98 4 3 C4.33 2.01 4.66 1.02 5 0 C6.32 0.33 7.64 0.66 9 1 C9 2.32 9 3.64 9 5 C9.66 5 10.32 5 11 5 C11.33 3.35 11.66 1.7 12 0 C12.66 0 13.32 0 14 0 C13.25 6.625 13.25 6.625 11 10 C10.34 10 9.68 10 9 10 C8.34 8.68 7.68 7.36 7 6 C6.34 7.32 5.68 8.64 5 10 C2 9 2 9 0.8125 6.6875 C0 4 0 4 0 0 Z " fill="#909090" transform="translate(73,142)"/>
<path d="M0 0 C6.93359375 -0.09765625 6.93359375 -0.09765625 9 0 C10 1 10 1 10.09765625 2.84765625 C10.04882812 5.92382812 10.04882812 5.92382812 10 9 C9.67 8.01 9.34 7.02 9 6 C6.69 6 4.38 6 2 6 C2 6.66 2 7.32 2 8 C2.99 8.33 3.98 8.66 5 9 C3.35 9.33 1.7 9.66 0 10 C0 6.7 0 3.4 0 0 Z " fill="#9C9D9D" transform="translate(100,142)"/>
<path d="M0 0 C3.3 0 6.6 0 10 0 C8.68 3.96 7.36 7.92 6 12 C4.02 12 2.04 12 0 12 C0.66 9.69 1.32 7.38 2 5 C1.34 4.67 0.68 4.34 0 4 C1.98 4 3.96 4 6 4 C6 3.34 6 2.68 6 2 C4.02 2 2.04 2 0 2 C0 1.34 0 0.68 0 0 Z " fill="#052020" transform="translate(154,144)"/>
<path d="M0 0 C2.97 0 5.94 0 9 0 C9.33 0.99 9.66 1.98 10 3 C7.36 2.67 4.72 2.34 2 2 C2 2.66 2 3.32 2 4 C4.31 4 6.62 4 9 4 C9.38218767 5.65614657 9.71395102 7.32457024 10 9 C9 10 9 10 6.93359375 10.09765625 C6.10988281 10.08605469 5.28617188 10.07445312 4.4375 10.0625 C3.61121094 10.05347656 2.78492188 10.04445312 1.93359375 10.03515625 C1.29550781 10.02355469 0.65742188 10.01195312 0 10 C0 9.01 0 8.02 0 7 C2.64 7.33 5.28 7.66 8 8 C8 7.34 8 6.68 8 6 C5.36 6 2.72 6 0 6 C0 4.02 0 2.04 0 0 Z " fill="#999999" transform="translate(173,142)"/>
<path d="M0 0 C3.3 0 6.6 0 10 0 C10 0.66 10 1.32 10 2 C7.36 2 4.72 2 2 2 C2 2.66 2 3.32 2 4 C3.98 4 5.96 4 8 4 C8 4.66 8 5.32 8 6 C6.02 6 4.04 6 2 6 C2 6.66 2 7.32 2 8 C4.31 8 6.62 8 9 8 C9 8.66 9 9.32 9 10 C6.03 10 3.06 10 0 10 C0 6.7 0 3.4 0 0 Z " fill="#9A9B9B" transform="translate(89,142)"/>
<path d="M0 0 C1.32 0 2.64 0 4 0 C5.23593891 3.70781672 4.5678132 4.67510253 3.0625 8.1875 C2.68222656 9.08855469 2.30195313 9.98960938 1.91015625 10.91796875 C1.60980469 11.60503906 1.30945313 12.29210937 1 13 C0.67 12.34 0.34 11.68 0 11 C-0.99 11.33 -1.98 11.66 -3 12 C-2.49202991 7.6822542 -1.80317221 3.96697886 0 0 Z " fill="#C8A8A8" transform="translate(177,89)"/>
<path d="M0 0 C1.65 0 3.3 0 5 0 C5 6.93 5 13.86 5 21 C4.67 21 4.34 21 4 21 C3.67 15.39 3.34 9.78 3 4 C2.26713908 6.93144368 1.83956246 9.16825067 1.68359375 12.109375 C1.64169922 12.86347656 1.59980469 13.61757812 1.55664062 14.39453125 C1.51732422 15.17183594 1.47800781 15.94914062 1.4375 16.75 C1.39431641 17.54277344 1.35113281 18.33554688 1.30664062 19.15234375 C1.20097009 21.10137815 1.10002034 23.05066748 1 25 C0.67 25 0.34 25 0 25 C0 16.75 0 8.5 0 0 Z " fill="#DBB5B5" transform="translate(85,79)"/>
<path d="M0 0 C0.99 1.485 0.99 1.485 2 3 C4.05925139 3.72382467 4.05925139 3.72382467 6 4 C6.33 3.34 6.66 2.68 7 2 C7.50615298 3.26839526 8.00469099 4.53983102 8.5 5.8125 C8.7784375 6.52019531 9.056875 7.22789062 9.34375 7.95703125 C10 10 10 10 10 13 C8.35 13 6.7 13 5 13 C4.15615325 11.58957044 3.32530504 10.17135868 2.5 8.75 C2.0359375 7.96109375 1.571875 7.1721875 1.09375 6.359375 C0 4 0 4 0 0 Z " fill="#113C3B" transform="translate(204,142)"/>
<path d="M0 0 C15.18 0 30.36 0 46 0 C46 0.33 46 0.66 46 1 C31.81 1.33 17.62 1.66 3 2 C2.67 2.99 2.34 3.98 2 5 C1.34 5 0.68 5 0 5 C0 3.35 0 1.7 0 0 Z " fill="#F9CACB" transform="translate(32,79)"/>
<path d="M0 0 C1.23556641 0.01740234 1.23556641 0.01740234 2.49609375 0.03515625 C3.32238281 0.04417969 4.14867188 0.05320313 5 0.0625 C5.63808594 0.07410156 6.27617188 0.08570313 6.93359375 0.09765625 C6.93359375 0.75765625 6.93359375 1.41765625 6.93359375 2.09765625 C4.29359375 2.09765625 1.65359375 2.09765625 -1.06640625 2.09765625 C-1.06640625 4.07765625 -1.06640625 6.05765625 -1.06640625 8.09765625 C1.57359375 8.09765625 4.21359375 8.09765625 6.93359375 8.09765625 C6.93359375 8.75765625 6.93359375 9.41765625 6.93359375 10.09765625 C5.45452483 10.12454841 3.97531892 10.14400246 2.49609375 10.16015625 C1.26052734 10.17755859 1.26052734 10.17755859 0 10.1953125 C-2.06640625 10.09765625 -2.06640625 10.09765625 -3.06640625 9.09765625 C-3.19921875 7.28515625 -3.19921875 7.28515625 -3.19140625 5.09765625 C-3.19398437 4.37578125 -3.1965625 3.65390625 -3.19921875 2.91015625 C-3.00640394 0.2788012 -2.63137052 0.12435588 0 0 Z " fill="#989898" transform="translate(119.06640625,141.90234375)"/>
<path d="M0 0 C2.97 0 5.94 0 9 0 C9 0.66 9 1.32 9 2 C8.01 2 7.02 2 6 2 C6 4.64 6 7.28 6 10 C5.01 10 4.02 10 3 10 C3 7.36 3 4.72 3 2 C2.01 2 1.02 2 0 2 C0 1.34 0 0.68 0 0 Z " fill="#8B8B8B" transform="translate(162,142)"/>
<path d="M0 0 C3.3 0 6.6 0 10 0 C10.83425187 3.61290178 11.10842154 6.92066251 11.0625 10.625 C11.05347656 11.56601563 11.04445313 12.50703125 11.03515625 13.4765625 C11.02355469 14.30929688 11.01195312 15.14203125 11 16 C11 16.99 11 17.98 11 19 C10.34 19 9.68 19 9 19 C9 13.06 9 7.12 9 1 C6.03 1 3.06 1 0 1 C0 0.67 0 0.34 0 0 Z " fill="#404D4D" transform="translate(43,129)"/>
<path d="M0 0 C0.33 0.99 0.66 1.98 1 3 C1.99 3.33 2.98 3.66 4 4 C2.1875 7 2.1875 7 0 10 C-0.99 10 -1.98 10 -3 10 C-3.99 10.495 -3.99 10.495 -5 11 C-3.77472971 6.94718288 -2.30119506 3.55639236 0 0 Z " fill="#998D8D" transform="translate(132,101)"/>
<path d="M0 0 C2.97 0 5.94 0 9 0 C8.67 1.65 8.34 3.3 8 5 C5.69 5 3.38 5 1 5 C0.67 3.35 0.34 1.7 0 0 Z " fill="#979797" transform="translate(140,142)"/>
<path d="M0 0 C2.97 0 5.94 0 9 0 C8.67 1.32 8.34 2.64 8 4 C6.02 4 4.04 4 2 4 C1.67 5.98 1.34 7.96 1 10 C0.67 10 0.34 10 0 10 C0 6.7 0 3.4 0 0 Z " fill="#767878" transform="translate(100,142)"/>
<path d="M0 0 C3.3 0 6.6 0 10 0 C9.34 1.98 8.68 3.96 8 6 C5.36 5.67 2.72 5.34 0 5 C0 4.67 0 4.34 0 4 C1.98 4 3.96 4 6 4 C6 3.34 6 2.68 6 2 C4.02 2 2.04 2 0 2 C0 1.34 0 0.68 0 0 Z " fill="#1A2B2B" transform="translate(154,144)"/>
<path d="M0 0 C2.64 0 5.28 0 8 0 C8 1.65 8 3.3 8 5 C5.36 4.67 2.72 4.34 0 4 C0 2.68 0 1.36 0 0 Z " fill="#0A0A0A" transform="translate(119,145)"/>
<path d="M0 0 C5.28 0.33 10.56 0.66 16 1 C16 1.66 16 2.32 16 3 C10.96608857 4.46145816 4.75023285 4.37511642 0 2 C0 1.34 0 0.68 0 0 Z " fill="#4B4B4C" transform="translate(169,126)"/>
<path d="M0 0 C2.91952568 0.01748219 5.72297885 0.13944633 8.625 0.375 C9.42679688 0.43171875 10.22859375 0.4884375 11.0546875 0.546875 C13.03715498 0.68847982 15.01869051 0.84302259 17 1 C17 1.33 17 1.66 17 2 C10.60624381 3.59843905 4.40654045 3.28130809 -2 2 C-1.34 1.34 -0.68 0.68 0 0 Z " fill="#535353" transform="translate(98,126)"/>
<path d="M0 0 C0.99 0 1.98 0 3 0 C3.66 0.99 4.32 1.98 5 3 C3.515 5.475 3.515 5.475 2 8 C0.68 7.67 -0.64 7.34 -2 7 C-1.125 2.25 -1.125 2.25 0 0 Z " fill="#CCAAAA" transform="translate(140,87)"/>
<path d="M0 0 C0.99 0 1.98 0 3 0 C3.33 2.31 3.66 4.62 4 7 C2.68 7.33 1.36 7.66 0 8 C-0.66 6.02 -1.32 4.04 -2 2 C-1.34 1.34 -0.68 0.68 0 0 Z " fill="#C4A5A5" transform="translate(188,89)"/>
<path d="M0 0 C0 2.64 0 5.28 0 8 C-1.65 8 -3.3 8 -5 8 C-3.91891892 0 -3.91891892 0 0 0 Z " fill="#0A0A0A" transform="translate(116,142)"/>
<path d="M0 0 C1.9375 0.3125 1.9375 0.3125 4 1 C5 4 5 4 4.0625 6.1875 C3.5365625 7.0846875 3.5365625 7.0846875 3 8 C2.67 7.34 2.34 6.68 2 6 C1.01 6.33 0.02 6.66 -1 7 C-0.67 4.69 -0.34 2.38 0 0 Z " fill="#B49B9B" transform="translate(175,94)"/>
<path d="M0 0 C1.65 0 3.3 0 5 0 C4.67 0.99 4.34 1.98 4 3 C1.9375 3.6875 1.9375 3.6875 0 4 C0 2.68 0 1.36 0 0 Z M0 4 C0.33 4.66 0.66 5.32 1 6 C-1.97 6 -4.94 6 -8 6 C-4.77208445 3.8480563 -3.71599191 3.79913557 0 4 Z " fill="#031919" transform="translate(142,149)"/>
<path d="M0 0 C0.66 0 1.32 0 2 0 C2.02698422 2.43757413 2.04683099 4.87484915 2.0625 7.3125 C2.07087891 8.00279297 2.07925781 8.69308594 2.08789062 9.40429688 C2.10307906 12.5483025 2.00193327 14.99420019 1 18 C0.34 18 -0.32 18 -1 18 C-0.83628906 17.31550781 -0.67257813 16.63101563 -0.50390625 15.92578125 C0.06447034 12.6256722 0.09630767 9.53445931 0.0625 6.1875 C0.05347656 5.02605469 0.04445313 3.86460937 0.03515625 2.66796875 C0.02355469 1.78753906 0.01195313 0.90710938 0 0 Z " fill="#191B1B" transform="translate(83,129)"/>
<path d="M0 0 C0.33 0.66 0.66 1.32 1 2 C1.99 2.33 2.98 2.66 4 3 C3.34 4.32 2.68 5.64 2 7 C1.01 7 0.02 7 -1 7 C-1.99 7.495 -1.99 7.495 -3 8 C-1.125 2.25 -1.125 2.25 0 0 Z " fill="#B99E9F" transform="translate(137,92)"/>
<path d="M0 0 C2.31 0 4.62 0 7 0 C7.33 1.32 7.66 2.64 8 4 C6.02 4 4.04 4 2 4 C1.34 2.68 0.68 1.36 0 0 Z " fill="#575D5D" transform="translate(102,148)"/>
<path d="M0 0 C0.33 1.32 0.66 2.64 1 4 C1.66 4 2.32 4 3 4 C4.35439668 6.70879335 4.06501451 9.00933268 4 12 C3.01 11.67 2.02 11.34 1 11 C1.33 9.35 1.66 7.7 2 6 C1.34 6 0.68 6 0 6 C0 4.02 0 2.04 0 0 Z " fill="#2C4A49" transform="translate(85,136)"/>
<path d="M0 0 C0.66 0 1.32 0 2 0 C2 0.66 2 1.32 2 2 C2.66 2.33 3.32 2.66 4 3 C4 3.66 4 4.32 4 5 C3.505 4.855625 3.01 4.71125 2.5 4.5625 C-0.97752922 3.78005593 -4.45955123 3.41305236 -8 3 C-8 2.67 -8 2.34 -8 2 C-5.36 2 -2.72 2 0 2 C0 1.34 0 0.68 0 0 Z " fill="#1B3838" transform="translate(126,150)"/>
<path d="M0 0 C1.32 0.66 2.64 1.32 4 2 C4 2.66 4 3.32 4 4 C4.99 4.33 5.98 4.66 7 5 C4.36 5 1.72 5 -1 5 C-0.67 3.35 -0.34 1.7 0 0 Z " fill="#062F2E" transform="translate(114,150)"/>
<path d="M0 0 C0.99 1.32 1.98 2.64 3 4 C2.34 4.66 1.68 5.32 1 6 C1 5.34 1 4.68 1 4 C-1.31 4 -3.62 4 -6 4 C-6 3.34 -6 2.68 -6 2 C-4.02 2 -2.04 2 0 2 C0 1.34 0 0.68 0 0 Z " fill="#202020" transform="translate(97,146)"/>
<path d="M0 0 C0.33 0 0.66 0 1 0 C1 2.64 1 5.28 1 8 C-0.32 8 -1.64 8 -3 8 C-1.125 1.125 -1.125 1.125 0 0 Z " fill="#080A0A" transform="translate(164,144)"/>
<path d="M0 0 C0.66 1.32 1.32 2.64 2 4 C5.05908413 4.81584568 5.05908413 4.81584568 8 5 C8 5.33 8 5.66 8 6 C6.02 6 4.04 6 2 6 C2 6.99 2 7.98 2 9 C1.34 9 0.68 9 0 9 C0 6.03 0 3.06 0 0 Z " fill="#969696" transform="translate(140,143)"/>
<path d="M0 0 C0 0.99 0 1.98 0 3 C-2.64 3.33 -5.28 3.66 -8 4 C-8 3.34 -8 2.68 -8 2 C-4.77208445 -0.1519437 -3.71599191 -0.20086443 0 0 Z " fill="#1F1F1F" transform="translate(196,151)"/>
<path d="M0 0 C1.98 0 3.96 0 6 0 C6 0.99 6 1.98 6 3 C4.02 3 2.04 3 0 3 C0 2.01 0 1.02 0 0 Z " fill="#292929" transform="translate(142,144)"/>
<path d="M0 0 C1.98 0 3.96 0 6 0 C6 0.99 6 1.98 6 3 C4.02 3 2.04 3 0 3 C0 2.01 0 1.02 0 0 Z " fill="#2B2B2B" transform="translate(130,144)"/>
<path d="M0 0 C0.33 0 0.66 0 1 0 C1.16873478 1.43725871 1.33490737 2.87481838 1.5 4.3125 C1.5928125 5.11300781 1.685625 5.91351563 1.78125 6.73828125 C2 9 2 9 2 12 C1.34 12 0.68 12 0 12 C0 8.04 0 4.08 0 0 Z " fill="#1E3837" transform="translate(52,136)"/>
</svg>
